Coordinates
version=1
nRows=15
nColumns=46
inDegrees=yes

Units are S.I. units (second, meters, Newtons, ...)
Angles are in degrees.

endheader
time	pelvis_tilt	pelvis_list	pelvis_rotation	pelvis_tx	pelvis_ty	pelvis_tz	bb_angle	bb_tx	bb_ty	bb_tz	hip_flexion_r	hip_adduction_r	hip_rotation_r	knee_angle_r	knee_angle_r_beta	ankle_angle_r	subtalar_angle_r	mtp_angle_r	crank_angle_r	hip_flexion_l	hip_adduction_l	hip_rotation_l	knee_angle_l	knee_angle_l_beta	ankle_angle_l	subtalar_angle_l	mtp_angle_l	crank_angle_l	lumbar_extension	lumbar_bending	lumbar_rotation	arm_flex_r	arm_add_r	arm_rot_r	elbow_flex_r	pro_sup_r	wrist_flex_r	wrist_dev_r	arm_flex_l	arm_add_l	arm_rot_l	elbow_flex_l	pro_sup_l	wrist_flex_l	wrist_dev_l
      5.00000000	    -17.01037486	      5.36509915	      5.70717838	      0.14726045	      1.16464836	     -0.24081021	      0.00000000	      0.50000000	      0.00000000	      0.25000000	     41.44641222	    -11.72428102	     -8.23426211	     40.55259486	      0.70777630	      4.82785451	      3.19969953	      0.00000000	      0.00000000	     96.76347560	     -3.21382373	     -0.99500454	    105.66713891	      1.84423949	    -31.99759070	     -7.20288029	      0.00000000	      0.00000000	    -64.63332760	     -7.57607486	     -7.17663884	     89.76130851	    -17.68472833	     30.38785538	     51.79538013	     23.65445540	      0.00000000	      0.00000000	     89.74737806	     -3.32478593	     23.99454585	     58.35466062	     29.30965737	      0.00000000	      0.00000000
      5.00500000	    -17.48156704	      5.38685968	      6.12141763	      0.14663345	      1.16553676	     -0.24147372	      0.00000000	      0.50000000	      0.00000000	      0.25000000	     42.49366657	    -12.22810237	     -8.27090267	     42.43480605	      0.74062708	      3.89488764	      2.70971256	      0.00000000	      0.00000000	     97.00632683	     -2.58502673	     -1.14497546	    104.52272122	      1.82426563	    -30.78043107	     -6.97917859	      0.00000000	      0.00000000	    -64.52453929	     -7.26516255	     -7.46427422	     89.76129672	    -17.82723465	     30.11283637	     52.24764756	     23.76190912	      0.00000000	      0.00000000	     89.75144237	     -3.49603680	     24.00409352	     58.95009738	     29.28471149	      0.00000000	      0.00000000
      5.01000000	    -17.87192930	      5.29049184	      6.41400749	      0.14614648	      1.16624407	     -0.24213488	      0.00000000	      0.50000000	      0.00000000	      0.25000000	     43.62066772	    -12.59845559	     -8.36758146	     44.53822492	      0.77733867	      2.81132177	      2.11705069	      0.00000000	      0.00000000	     97.06635455	     -2.07769925	     -1.15101314	    103.37695812	      1.80426829	    -29.30454977	     -6.70873166	      0.00000000	      0.00000000	    -64.44948721	     -6.97754909	     -7.55869692	     89.76451346	    -17.95276266	     29.87785428	     52.74144496	     23.87561644	      0.00000000	      0.00000000	     89.75398777	     -3.75502675	     24.01943184	     59.54579908	     29.25840794	      0.00000000	      0.00000000
      5.01500000	    -17.86953460	      4.94737238	      6.61634832	      0.14561373	      1.16762419	     -0.24232648	      0.00000000	      0.50000000	      0.00000000	      0.25000000	     44.31308985	    -12.56170381	     -8.32178842	     46.53504498	      0.81218975	      1.71264343	      1.77963294	      0.00000000	      0.00000000	     96.67351560	     -1.78621369	     -0.93075948	    102.18562315	      1.78347557	    -28.02354597	     -6.83919663	      0.00000000	      0.00000000	    -64.64370452	     -6.52120138	     -7.30397683	     89.77585269	    -17.99511052	     29.79936007	     52.91359460	     23.91234279	      0.00000000	      0.00000000	     89.75849220	     -3.90859174	     23.96572704	     59.82093458	     29.26462132	      0.00000000	      0.00000000
      5.02000000	    -18.38372959	      4.82712547	      6.89281966	      0.14493504	      1.16803397	     -0.24265414	      0.00000000	      0.50000000	      0.00000000	      0.25000000	     45.79743249	    -12.80216196	     -8.18015171	     48.78146924	      0.85139725	     -0.07204847	      0.10696292	      0.00000000	      0.00000000	     96.52636508	     -1.36439551	     -0.78871694	    100.84608797	      1.76009627	    -25.37232936	     -5.54234823	      0.00000000	      0.00000000	    -64.56248933	     -6.20215191	     -7.59096104	     89.76891896	    -18.24635960	     29.36662282	     54.29894084	     24.24523589	      0.00000000	      0.00000000	     89.76394637	     -5.09597278	     24.74826351	     61.44227554	     28.92959554	      0.00000000	      0.00000000
      5.02500000	    -18.56191689	      4.61673636	      7.07966590	      0.14444729	      1.16882473	     -0.24305610	      0.00000000	      0.50000000	      0.00000000	      0.25000000	     46.96456771	    -12.86862315	     -7.94754225	     51.06412522	      0.89123711	     -1.66792264	     -1.08016220	      0.00000000	      0.00000000	     95.95545549	     -0.95194122	     -0.51678768	     99.48654052	      1.73636769	    -22.95085798	     -4.67875155	      0.00000000	      0.00000000	    -64.65083365	     -5.85530623	     -7.54624707	     89.77248909	    -18.36978533	     29.15625586	     54.83387317	     24.36112466	      0.00000000	      0.00000000	     89.76764632	     -5.33896128	     24.54298241	     62.05096820	     28.75821024	      0.00000000	      0.00000000
      5.03000000	    -18.76540145	      4.33151803	      7.29022727	      0.14369578	      1.16938597	     -0.24350675	      0.00000000	      0.50000000	      0.00000000	      0.25000000	     48.23310661	    -12.88928621	     -7.72340639	     53.37737503	      0.93161094	     -3.42183498	     -2.21649882	      0.00000000	      0.00000000	     95.32182443	     -0.64099420	     -0.20746706	     98.00548181	      1.71051834	    -20.54437660	     -3.70444038	      0.00000000	      0.00000000	    -64.71151296	     -5.47995276	     -7.41046956	     89.77536153	    -18.63913666	     28.89804875	     55.47509074	     24.48315889	      0.00000000	      0.00000000	     89.77183043	     -5.50183905	     24.44552926	     62.60833921	     28.66070724	      0.00000000	      0.00000000
      5.03500000	    -18.80995629	      4.11322710	      7.59546733	      0.14321964	      1.16992172	     -0.24436143	      0.00000000	      0.50000000	      0.00000000	      0.25000000	     49.34434761	    -12.90619999	     -7.20108290	     55.73837374	      0.97281814	     -5.02960497	     -3.36725776	      0.00000000	      0.00000000	     94.38970727	     -0.21455186	      0.00010037	     96.48309259	      1.68394764	    -18.02213893	     -3.02931904	      0.00000000	      0.00000000	    -64.88655910	     -5.00113815	     -7.33486059	     89.77905141	    -18.86928897	     28.71546378	     56.04866264	     24.58916557	      0.00000000	      0.00000000	     89.77414959	     -5.69113076	     24.41100643	     63.04821514	     28.59408066	      0.00000000	      0.00000000
      5.04000000	    -18.93912112	      3.65399581	      7.66037009	      0.14266042	      1.17025700	     -0.24421137	      0.00000000	      0.50000000	      0.00000000	      0.25000000	     50.59755066	    -12.61137562	     -7.01037242	     58.00899729	      1.01244800	     -6.92518374	     -4.58992315	      0.00000000	      0.00000000	     93.49220852	     -0.20170960	      0.46020815	     94.88909937	      1.65612721	    -15.41259709	     -2.01649405	      0.00000000	      0.00000000	    -64.94620804	     -4.61700203	     -6.91691185	     89.78054895	    -19.09878773	     28.51894828	     56.73564164	     24.73086455	      0.00000000	      0.00000000	     89.77576594	     -5.93001057	     24.34472103	     63.63571371	     28.55755647	      0.00000000	      0.00000000
      5.04500000	    -19.00747932	      3.29455927	      7.57605078	      0.14193609	      1.17044569	     -0.24411630	      0.00000000	      0.50000000	      0.00000000	      0.25000000	     51.88083765	    -12.26712335	     -6.55410372	     60.28283239	      1.05213391	     -8.71661184	     -5.56541800	      0.00000000	      0.00000000	     92.40054659	     -0.25642038	      0.87403022	     93.22438093	      1.62707239	    -12.66663617	     -0.99401724	      0.00000000	      0.00000000	    -65.06109585	     -4.42646049	     -6.55706068	     89.78348005	    -19.36672608	     28.31233860	     57.42293696	     24.86024034	      0.00000000	      0.00000000	     89.77408699	     -5.94795678	     24.10495742	     64.17927992	     28.50618210	      0.00000000	      0.00000000
      5.05000000	    -19.04956078	      2.94611432	      7.49085263	      0.14136730	      1.17037420	     -0.24402740	      0.00000000	      0.50000000	      0.00000000	      0.25000000	     53.16652813	    -11.92955636	     -6.13448602	     62.58431856	      1.09230242	    -10.46859642	     -6.42011143	      0.00000000	      0.00000000	     91.19686720	     -0.36000516	      1.17795637	     91.49978269	      1.59697247	     -9.98033760	     -0.00864870	      0.00000000	      0.00000000	    -65.13245312	     -4.21522766	     -6.10059121	     89.78422562	    -19.67208993	     28.15881799	     58.02486803	     24.95901195	      0.00000000	      0.00000000	     89.77410904	     -6.01718302	     24.02676283	     64.56930176	     28.43783397	      0.00000000	      0.00000000
      5.05500000	    -18.94698497	      2.52897995	      7.37424156	      0.14098956	      1.17067023	     -0.24356877	      0.00000000	      0.50000000	      0.00000000	      0.25000000	     54.25043987	    -11.45102467	     -5.78110718	     64.75839004	      1.13024712	    -12.31649188	     -7.38926693	      0.00000000	      0.00000000	     89.72217570	     -0.62519288	      1.47576736	     89.65616698	      1.56479531	     -7.24691129	      1.21766149	      0.00000000	      0.00000000	    -65.33663353	     -3.97794880	     -5.42403039	     89.78352542	    -20.11978947	     28.00220713	     58.81256343	     25.09470431	      0.00000000	      0.00000000	     89.77488019	     -6.04817887	     23.98034414	     65.01296138	     28.29554931	      0.00000000	      0.00000000
      5.06000000	    -18.89387725	      2.27229002	      7.15729788	      0.14038986	      1.17048195	     -0.24364542	      0.00000000	      0.50000000	      0.00000000	      0.25000000	     55.51499572	    -11.11651056	     -5.29577651	     67.01887026	      1.16969995	    -13.84676928	     -7.79347421	      0.00000000	      0.00000000	     88.18425108	     -0.74585552	      1.67852148	     87.71092545	      1.53084444	     -4.62658955	      1.58903433	      0.00000000	      0.00000000	    -65.40955301	     -3.86779520	     -4.91767071	     89.78597352	    -20.35831779	     27.87833388	     59.18368324	     25.16397615	      0.00000000	      0.00000000	     89.77441541	     -6.02317814	     23.95671985	     65.12273219	     28.21582021	      0.00000000	      0.00000000
      5.06500000	    -18.77707331	      1.84436598	      6.87917638	      0.13997640	      1.17022584	     -0.24327254	      0.00000000	      0.50000000	      0.00000000	      0.25000000	     56.70330858	    -10.52501605	     -4.89753791	     69.18196535	      1.20745308	    -15.55927056	     -8.46421608	      0.00000000	      0.00000000	     86.54377512	     -1.08091175	      2.01361727	     85.71506320	      1.49601007	     -1.97141156	      2.41875413	      0.00000000	      0.00000000	    -65.50691192	     -3.75529919	     -4.08372631	     89.78364889	    -20.87747180	     27.77437754	     59.86700915	     25.26787021	      0.00000000	      0.00000000	     89.77382038	     -5.79496721	     23.89150950	     65.19881438	     27.92328209	      0.00000000	      0.00000000
      5.07000000	    -18.65900165	      1.48633967	      6.62136393	      0.13966507	      1.16974124	     -0.24341920	      0.00000000	      0.50000000	      0.00000000	      0.25000000	     57.90302955	    -10.12453820	     -4.57047945	     71.35987506	      1.24546477	    -16.93436305	     -8.28878962	      0.00000000	      0.00000000	     84.80466123	     -1.30371975	      2.18579664	     83.58248494	      1.45878956	      0.38799723	      2.23337174	      0.00000000	      0.00000000	    -65.50094699	     -3.55860447	     -3.49941974	     89.78442056	    -20.89770116	     27.75338642	     60.02455599	     25.28845719	      0.00000000	      0.00000000	     89.76820541	     -5.86205452	     23.82810821	     65.16527716	     27.85239533	      0.00000000	      0.00000000
